#N canvas 975 243 450 300 10;
#X msg 69 21 0;
#X msg 178 23 0.5;
#X obj 139 57 beats 2 8 15;
#X obj 276 101 s b-sw;
#X obj 284 69 tgl 15 0 empty empty empty 17 7 0 10 -262144 -1 -1 0
1;
#X obj 149 218 beats 8 4 440;
#X obj 36 57 beats 1 8 12;
#X obj 145 109 beats 4 2 440;
#X obj 40 166 beats 5 4 100;
#X obj 143 166 beats 6 2 15;
#X obj 41 218 beats 7 8 110;
#X obj 272 38 s hz;
#X floatatom 271 15 5 0 0 0 - - -, f 5;
#X obj 37 109 beats 3 8 110;
#X connect 0 0 2 0;
#X connect 0 0 5 0;
#X connect 0 0 6 0;
#X connect 0 0 7 0;
#X connect 0 0 8 0;
#X connect 0 0 9 0;
#X connect 0 0 10 0;
#X connect 0 0 13 0;
#X connect 1 0 2 0;
#X connect 4 0 3 0;
#X connect 12 0 11 0;
