#N canvas 785 182 465 505 10;
#X obj 129 59 inlet~;
#X obj 129 80 env~;
#X obj 168 440 outlet;
#X obj 168 265 spigot;
#X obj 168 199 line;
#X obj 225 423 line;
#X msg 168 179 \$1 100;
#X obj 297 218 inlet;
#X msg 225 394 0 250;
#X obj 201 216 >= 0.2;
#X obj 168 158 average 20;
#X obj 129 105 / 100;
#X obj 129 130 moses 0;
#X floatatom 262 187 5 0 0 0 - - -, f 5;
#X obj 225 332 once;
#X obj 225 293 sel 0 1;
#X connect 0 0 1 0;
#X connect 1 0 11 0;
#X connect 3 0 2 0;
#X connect 4 0 3 0;
#X connect 4 0 9 0;
#X connect 5 0 2 0;
#X connect 6 0 4 0;
#X connect 8 0 5 0;
#X connect 9 0 3 1;
#X connect 9 0 13 0;
#X connect 9 0 15 0;
#X connect 10 0 6 0;
#X connect 11 0 12 0;
#X connect 12 1 10 0;
#X connect 14 0 8 0;
#X connect 15 0 14 0;
#X connect 15 1 14 1;
