#N canvas 190 292 1085 456 10;
#X obj 86 50 inlet~;
#X obj 16 296 outlet;
#N canvas 675 22 276 192 filters 0;
#X obj 16 18 inlet~;
#X obj 16 124 outlet~;
#X text 76 56 DC filter;
#X obj 16 57 hip~ 160;
#X text 14 163 Katja Vetter 2012;
#X text 111 87 Sibilant filter;
#X obj 16 88 lop~ 3000;
#X connect 0 0 3 0;
#X connect 3 0 6 0;
#X connect 6 0 1 0;
#X restore 86 76 pd filters;
#X obj 309 81 inlet;
#X obj 367 98 >;
#X obj 367 124 s \$0-xt;
#X obj 89 228 r \$0-xt;
#X obj 16 269 spigot;
#X obj 174 296 int;
#X obj 135 313 -;
#X obj 174 270 + 0.5;
#X obj 135 337 * 100;
#X obj 135 246 t f f f;
#X obj 135 191 ftom;
#N canvas 0 22 290 208 smooth 0;
#X obj 54 86 +;
#X obj 54 137 * 1.11111;
#X obj 54 63 * 0.1;
#X obj 54 113 * 0.9;
#X obj 54 32 inlet;
#X obj 148 33 inlet;
#X obj 54 167 outlet;
#X text 92 33 freq;
#X text 189 33 new freq;
#X text 107 98 lo pass filter;
#X connect 0 0 3 0;
#X connect 1 0 6 0;
#X connect 2 0 0 0;
#X connect 3 0 0 1;
#X connect 3 0 1 0;
#X connect 4 0 2 0;
#X connect 5 0 3 0;
#X restore 135 160 pd smooth;
#N canvas 904 43 266 331 newpitch 0;
#X obj 46 206 f;
#X obj 123 189 delay 20;
#X obj 123 49 ftom;
#X obj 123 142 sel 1;
#X obj 123 74 delta;
#X obj 61 32 inlet;
#X obj 46 231 outlet;
#X obj 123 99 abs;
#X obj 168 33 loadbang;
#X msg 168 57 0;
#X text 41 270 output new pitch when found;
#X obj 123 230 outlet;
#X obj 123 121 > 1;
#X floatatom 25 69 5 0 0 0 - - -, f 5;
#X floatatom 179 116 5 0 0 0 - - -, f 5;
#X connect 0 0 6 0;
#X connect 1 0 0 0;
#X connect 1 0 11 0;
#X connect 2 0 4 0;
#X connect 3 0 1 0;
#X connect 4 0 7 0;
#X connect 5 0 2 0;
#X connect 5 0 0 1;
#X connect 5 0 13 0;
#X connect 7 0 12 0;
#X connect 7 0 14 0;
#X connect 8 0 9 0;
#X connect 9 0 4 0;
#X connect 12 0 3 0;
#X restore 186 116 pd newpitch;
#X obj 135 361 i;
#X text 179 318 MIDI note number;
#X text 420 123 < threshold (amp);
#X text 134 405 Use cents for vcf~ sweeps (microtonal variance);
#X obj 753 153 outlet;
#X obj 135 384 outlet;
#X obj 200 7 inlet;
#X obj 33 93 s~ \$0-s;
#X obj 753 46 r~ \$0-s;
#X floatatom 429 93 5 0 0 0 - - -, f 5;
#X obj 89 252 == 1;
#X obj 16 208 expr rint($f1);
#X msg 524 63 npts 1024;
#X msg 629 63 hop 256;
#X obj 200 29 route helmholtz amp sigmund;
#X msg 551 46 set npts \$1;
#X obj 753 124 spigot;
#X obj 382 76 r \$0-a;
#X obj 327 46 s \$0-a;
#N canvas 486 503 450 300 misc 0;
#X msg -3534 61 npeak \$1;
#X msg -3492 86 maxfreq \$1;
#X msg -3451 61 vibrato \$1;
#X msg -3409 86 stabletime \$1;
#X msg -3368 61 minpower \$1;
#X msg -3326 86 growth \$1;
#X obj -3617 18 route npts hop npeak maxfreq vibrato stabletime minpower
growth;
#X text -3626 228 With acoustic sounds \, there is often a moment of
non-periodic sound inbetween notes \, where fidelity of pitch detection
drops below 0.95. This phenomenon can be employed for note detection.
With glissando notes \, this does not work.;
#X text -3501 152 sigmund~ -hop 128 -npts 1024 notes -minpower 100
-stabletime 50;
#X text -3627 118 E 4098 1024 50 40;
#X text -3627 132 A 1024 256 50 40;
#X text -3627 147 D 1024 256 50 40;
#X text -3627 162 G 512 128 50 40;
#X text -3626 178 B 512 128 50 40;
#X text -3626 193 e 512 128 50 40;
#X text -3516 117 < npts \, hop \, amp thres using env~ \, gate debounce
;
#X connect 6 2 0 0;
#X connect 6 3 1 0;
#X connect 6 4 2 0;
#X connect 6 5 3 0;
#X connect 6 6 4 0;
#X connect 6 7 5 0;
#X restore 10 397 pd misc;
#X text 1024 434 rg '15;
#X msg 807 46 \$3;
#X floatatom 309 104 5 0 0 0 - - -, f 5;
#X obj 249 140 bng 15 250 50 0 empty empty empty 17 7 0 10 -262144
-1 -1;
#X obj 753 80 sigmund~ notes env;
#X floatatom 713 97 5 0 0 0 - - -, f 5;
#X obj 723 141 bng 15 250 50 0 empty empty empty 17 7 0 10 -262144
-1 -1;
#X msg 642 214 fidelity \$1;
#X msg 642 238 maxfreq \$1;
#X msg 643 190 sens \$1;
#X text 640 269 use block for downsampling of lower pitches? block
1024 4 0.5 \, etc?;
#X msg 200 57 set framesize \$1;
#X msg 201 82 framesize 1024;
#X obj 238 263 s \$0-cp;
#X obj 926 389 r \$0-cp;
#X obj 926 412 outlet;
#X msg 200 214 overlap 4;
#X msg 200 139 \$2;
#X msg 227 188 set overlap \$1;
#X obj 200 163 t b f;
#X obj 157 65 t b f;
#X msg 157 46 \$1;
#X obj 524 29 t b f;
#X msg 524 46 \$1;
#X obj 629 29 t b f;
#X msg 629 46 \$2;
#X msg 656 46 set hop \$1;
#X text 855 166 implement katja's approach to attack;
#X floatatom 881 97 5 0 0 0 - - -, f 5;
#X obj 858 123 dbtorms;
#X floatatom 858 144 10 0 0 0 - - -, f 10;
#X obj 931 113 delta;
#X floatatom 931 135 5 0 0 0 - - -, f 5;
#X obj 86 99 helmholtz~ 1024 4;
#X obj 328 140 print;
#X obj 786 97 > 60;
#X connect 0 0 2 0;
#X connect 2 0 23 0;
#X connect 2 0 69 0;
#X connect 3 0 4 0;
#X connect 3 0 38 0;
#X connect 4 0 5 0;
#X connect 6 0 26 0;
#X connect 7 0 1 0;
#X connect 8 0 9 1;
#X connect 9 0 11 0;
#X connect 10 0 8 0;
#X connect 11 0 16 0;
#X connect 12 0 9 0;
#X connect 12 0 49 0;
#X connect 12 2 10 0;
#X connect 13 0 27 0;
#X connect 13 0 12 0;
#X connect 14 0 13 0;
#X connect 15 0 14 1;
#X connect 15 1 39 0;
#X connect 16 0 21 0;
#X connect 22 0 30 0;
#X connect 24 0 40 0;
#X connect 26 0 7 1;
#X connect 27 0 7 0;
#X connect 28 0 40 0;
#X connect 29 0 40 0;
#X connect 30 0 47 0;
#X connect 30 0 53 0;
#X connect 30 0 57 0;
#X connect 30 1 34 0;
#X connect 30 2 37 0;
#X connect 30 2 59 0;
#X connect 30 2 61 0;
#X connect 31 0 28 0;
#X connect 32 0 20 0;
#X connect 32 0 42 0;
#X connect 33 0 4 1;
#X connect 33 0 25 0;
#X connect 37 0 71 1;
#X connect 40 0 32 0;
#X connect 40 0 41 0;
#X connect 40 1 64 0;
#X connect 40 1 71 0;
#X connect 47 0 48 0;
#X connect 48 0 69 0;
#X connect 50 0 51 0;
#X connect 52 0 69 0;
#X connect 53 0 55 0;
#X connect 54 0 52 0;
#X connect 55 0 52 0;
#X connect 55 1 54 0;
#X connect 56 0 48 0;
#X connect 56 1 47 0;
#X connect 57 0 56 0;
#X connect 58 0 28 0;
#X connect 58 1 31 0;
#X connect 59 0 58 0;
#X connect 60 0 29 0;
#X connect 60 1 62 0;
#X connect 61 0 60 0;
#X connect 62 0 29 0;
#X connect 65 0 66 0;
#X connect 67 0 68 0;
#X connect 69 1 15 0;
#X connect 69 1 14 0;
#X connect 71 0 32 1;
