#N canvas 604 372 832 474 10;
#X obj 92 173 samphold~;
#X obj 200 123 inlet;
#X obj 143 144 phasor~ \$2;
#X obj 28 69 adc~ \$1;
#X obj 28 303 dac~ \$1;
#X obj 28 201 *~;
#X obj 28 118 clip~ -1 1;
#X obj 77 147 noise~;
#X obj 28 90 *~ 2;
#X obj 28 263 *~;
#X obj 73 228 r b-sw;
#X obj 163 67 r hz;
#X connect 0 0 5 1;
#X connect 1 0 2 1;
#X connect 2 0 0 1;
#X connect 3 0 8 0;
#X connect 5 0 9 0;
#X connect 6 0 5 0;
#X connect 7 0 0 0;
#X connect 8 0 6 0;
#X connect 9 0 4 0;
#X connect 10 0 9 1;
#X connect 11 0 2 0;
