#N canvas 391 23 1440 821 10;
#X obj 62 86 bfcc~ 1024 0.5;
#X obj 62 118 zl slice 1;
#X obj 141 147 zl slice 6;
#X obj 161 45 tgl 15 0 empty empty empty 17 7 0 10 -262144 -1 -1 1
1;
#X obj 392 406 packOSC;
#X obj 386 504 udpsend;
#X obj 119 249 zl slice 3;
#X msg 198 193 send /ball1R \$1;
#X msg 235 214 send /ball1G \$1;
#X msg 273 238 send /ball1B \$1;
#X obj 46 289 amp~;
#X floatatom 83 275 5 0 0 0 - - -, f 5;
#X floatatom 82 306 5 0 0 0 - - -, f 5;
#X floatatom 84 161 5 0 0 0 - - -, f 5;
#X obj 545 86 bfcc~ 1024 0.5;
#X obj 545 118 zl slice 1;
#X obj 624 147 zl slice 6;
#X obj 644 69 metro 50;
#X obj 644 45 tgl 15 0 empty empty empty 17 7 0 10 -262144 -1 -1 0
1;
#X obj 659 487 packOSC;
#X obj 602 249 zl slice 3;
#X floatatom 566 275 5 0 0 0 - - -, f 5;
#X msg 763 69 normalize 0;
#X floatatom 565 306 5 0 0 0 - - -, f 5;
#X floatatom 567 161 5 0 0 0 - - -, f 5;
#X msg 659 296 send /ball2 \$1 \$2 \$3;
#X msg 756 238 send /ball2B \$1;
#X msg 718 214 send /ball2G \$1;
#X msg 681 193 send /ball2R \$1;
#X obj 947 81 bfcc~ 1024 0.5;
#X obj 947 113 zl slice 1;
#X obj 1026 142 zl slice 6;
#X obj 1046 64 metro 50;
#X obj 1046 40 tgl 15 0 empty empty empty 17 7 0 10 -262144 -1 -1 0
1;
#X obj 1061 487 packOSC;
#X obj 1004 244 zl slice 3;
#X floatatom 968 270 5 0 0 0 - - -, f 5;
#X msg 1165 64 normalize 0;
#X floatatom 967 301 5 0 0 0 - - -, f 5;
#X floatatom 969 156 5 0 0 0 - - -, f 5;
#X msg 1083 188 send /ball3R \$1;
#X msg 1120 209 send /ball3G \$1;
#X msg 1158 233 send /ball3B \$1;
#X obj 56 589 adc~ 5;
#X obj 72 636 bfcc~ 1024 0.5;
#X obj 72 668 zl slice 1;
#X obj 151 697 zl slice 6;
#X obj 171 619 metro 50;
#X obj 171 595 tgl 15 0 empty empty empty 17 7 0 10 -262144 -1 -1 0
1;
#X obj 206 1037 packOSC;
#X obj 129 799 zl slice 3;
#X floatatom 93 825 5 0 0 0 - - -, f 5;
#X msg 290 619 normalize 0;
#X floatatom 92 856 5 0 0 0 - - -, f 5;
#X floatatom 94 711 5 0 0 0 - - -, f 5;
#X obj 555 636 bfcc~ 1024 0.5;
#X obj 555 668 zl slice 1;
#X obj 634 697 zl slice 6;
#X obj 654 619 metro 50;
#X obj 654 595 tgl 15 0 empty empty empty 17 7 0 10 -262144 -1 -1 0
1;
#X obj 669 1037 packOSC;
#X obj 612 799 zl slice 3;
#X floatatom 576 825 5 0 0 0 - - -, f 5;
#X msg 773 619 normalize 0;
#X floatatom 575 856 5 0 0 0 - - -, f 5;
#X floatatom 577 711 5 0 0 0 - - -, f 5;
#X obj 539 589 adc~ 6;
#X obj 957 631 bfcc~ 1024 0.5;
#X obj 957 663 zl slice 1;
#X obj 1036 692 zl slice 6;
#X obj 1056 614 metro 50;
#X obj 1056 590 tgl 15 0 empty empty empty 17 7 0 10 -262144 -1 -1
0 1;
#X obj 1071 1037 packOSC;
#X obj 1014 794 zl slice 3;
#X floatatom 978 820 5 0 0 0 - - -, f 5;
#X msg 1175 614 normalize 0;
#X floatatom 977 851 5 0 0 0 - - -, f 5;
#X floatatom 979 706 5 0 0 0 - - -, f 5;
#X obj 941 584 adc~ 7;
#X obj 931 34 adc~ 3;
#X obj 1334 87 bfcc~ 1024 0.5;
#X obj 1334 119 zl slice 1;
#X obj 1413 148 zl slice 6;
#X obj 1433 70 metro 50;
#X obj 1433 46 tgl 15 0 empty empty empty 17 7 0 10 -262144 -1 -1 0
1;
#X obj 1448 487 packOSC;
#X obj 1391 250 zl slice 3;
#X floatatom 1355 276 5 0 0 0 - - -, f 5;
#X msg 1552 70 normalize 0;
#X floatatom 1354 307 5 0 0 0 - - -, f 5;
#X floatatom 1356 162 5 0 0 0 - - -, f 5;
#X obj 1344 637 bfcc~ 1024 0.5;
#X obj 1344 669 zl slice 1;
#X obj 1423 698 zl slice 6;
#X obj 1443 620 metro 50;
#X obj 1443 596 tgl 15 0 empty empty empty 17 7 0 10 -262144 -1 -1
0 1;
#X obj 1458 1037 packOSC;
#X obj 1401 800 zl slice 3;
#X floatatom 1365 826 5 0 0 0 - - -, f 5;
#X msg 1562 620 normalize 0;
#X floatatom 1364 857 5 0 0 0 - - -, f 5;
#X floatatom 1366 712 5 0 0 0 - - -, f 5;
#X obj 1318 40 adc~ 4;
#X obj 1328 590 adc~ 8;
#X msg 1448 297 send /ball4 \$1 \$2 \$3;
#X msg 1545 239 send /ball4B \$1;
#X msg 1507 215 send /ball4G \$1;
#X msg 1470 194 send /ball4R \$1;
#X msg 669 846 send /ball6 \$1 \$2 \$3;
#X msg 767 788 send /ball6B \$1;
#X msg 727 764 send /ball6G \$1;
#X msg 691 743 send /ball6R \$1;
#X msg 208 743 send /ball5R \$1;
#X msg 246 764 send /ball5G \$1;
#X msg 283 788 send /ball5B \$1;
#X msg 186 846 send /ball5 \$1 \$2 \$3;
#X msg 1071 841 send /ball7 \$1 \$2 \$3;
#X msg 1168 783 send /ball7B \$1;
#X msg 1130 759 send /ball7G \$1;
#X msg 1093 738 send /ball7R \$1;
#X msg 1480 744 send /ball8R \$1;
#X msg 1517 765 send /ball8G \$1;
#X msg 1555 789 send /ball8B \$1;
#X msg 1458 847 send /ball8 \$1 \$2 \$3;
#X msg 1061 291 send /ball3 \$1 \$2 \$3;
#X obj 262 343 s string-1;
#X obj 61 324 s amp-1;
#X msg 406 441 disconnect;
#X obj 506 393 s amp-2;
#X obj 198 172 smooth-RGB;
#X obj 681 172 smooth-RGB;
#X obj 1083 167 smooth-RGB;
#X obj 1470 173 smooth-RGB;
#X obj 1480 723 smooth-RGB;
#X obj 1093 717 smooth-RGB;
#X obj 691 722 smooth-RGB;
#X obj 208 722 smooth-RGB;
#X obj 529 289 amp~;
#X obj 931 284 amp~;
#X obj 56 839 amp~;
#X obj 539 839 amp~;
#X obj 941 834 amp~;
#X obj 1318 290 amp~;
#X obj 1328 840 amp~;
#X msg 280 69 normalize 0;
#X obj 529 39 *~ 1;
#X obj 766 350 s string-2;
#X obj 1166 383 s string-3;
#X obj 1536 397 s string-4;
#X obj 295 915 s string-5;
#X obj 755 887 s string-6;
#X obj 1201 888 s string-7;
#X obj 1545 892 s string-8;
#X msg 46 400 send /amp_1 \$1;
#X obj 46 375 + 1e-05;
#X msg 529 371 send /amp_2 \$1;
#X msg 931 346 send /amp_3 \$1;
#X msg 1318 352 send /amp_4 \$1;
#X msg 56 901 send /amp_5 \$1;
#X msg 539 901 send /amp_6 \$1;
#X msg 941 896 send /amp_7 \$1;
#X msg 1328 902 send /amp_8 \$1;
#X obj 529 336 + 1e-05;
#X obj 931 321 + 1e-05;
#X obj 1264 336 + 1e-05;
#X obj 1328 874 + 1e-05;
#X obj 930 864 + 1e-05;
#X obj 533 873 + 1e-05;
#X obj 39 872 + 1e-05;
#X obj 867 411 s amp-3;
#X obj 1274 412 s amp-4;
#X obj 529 18 adc~ 2;
#X obj 383 56 attack~;
#X obj 409 81 bng 15 250 50 0 empty empty empty 17 7 0 10 -262144 -1
-1;
#X obj 444 96 del 50;
#X text 406 219 triggers clone;
#X msg 386 478 connect 127.0.0.1 8001;
#X msg 409 131 1.1;
#X msg 444 118 0.1;
#X floatatom 236 127 10 0 0 0 - - specFlux, f 10;
#X obj 236 107 barkSpecFlux~ 1024 0.5 256;
#X msg 409 198 send /1_b \$1 \$2;
#X obj 409 165 pack f f;
#X obj 336 124 abs;
#X obj 336 147 *;
#X floatatom 372 222 5 0 0 0 - - -, f 5;
#X obj 324 174 expr 1 - $f1;
#X obj 851 71 bng 15 250 50 0 empty empty empty 17 7 0 10 -262144 -1
-1;
#X obj 886 86 del 50;
#X msg 851 92 1.1;
#X msg 886 108 0.1;
#X floatatom 678 117 10 0 0 0 - - specFlux, f 10;
#X obj 678 97 barkSpecFlux~ 1024 0.5 256;
#X obj 851 155 pack f f;
#X obj 911 138 t b f;
#X obj 778 114 abs;
#X obj 778 137 *;
#X floatatom 789 182 5 0 0 0 - - -, f 5;
#X obj 766 164 expr 1 - $f1;
#X msg 851 188 send /2_b \$1 \$2;
#X obj 1249 65 bng 15 250 50 0 empty empty empty 17 7 0 10 -262144
-1 -1;
#X obj 1284 80 del 50;
#X msg 1249 86 1.1;
#X msg 1284 102 0.1;
#X obj 1076 91 barkSpecFlux~ 1024 0.5 256;
#X obj 1249 149 pack f f;
#X obj 1176 108 abs;
#X obj 1176 131 *;
#X floatatom 1187 176 5 0 0 0 - - -, f 5;
#X obj 1164 158 expr 1 - $f1;
#X msg 1249 182 send /3_b \$1 \$2;
#X obj 1704 72 bng 15 250 50 0 empty empty empty 17 7 0 10 -262144
-1 -1;
#X obj 1739 87 del 50;
#X msg 1704 93 1.1;
#X msg 1739 109 0.1;
#X obj 1531 98 barkSpecFlux~ 1024 0.5 256;
#X obj 1704 156 pack f f;
#X obj 1631 115 abs;
#X obj 1631 138 *;
#X floatatom 1642 183 5 0 0 0 - - -, f 5;
#X obj 1619 165 expr 1 - $f1;
#X msg 1704 189 send /4_b \$1 \$2;
#X obj 825 46 attack~;
#X obj 1223 40 attack~;
#X obj 1678 47 attack~;
#X obj 374 23 % 100;
#X obj 373 -1 f;
#X obj 402 0 + 1;
#X floatatom 338 28 5 0 0 0 - - -, f 5;
#N canvas 0 23 1336 821 boids 0;
#X obj 687 217 route 0 1 2 3 4 5 6 7;
#X floatatom 387 384 5 0 0 0 - - -, f 5;
#X msg 566 415 attractpt \$1 \$2 \$3;
#X floatatom 433 334 5 0 0 0 - - -, f 5;
#X floatatom 475 332 5 0 0 0 - - -, f 5;
#X obj 433 354 t b f;
#X obj 475 352 t b f;
#X obj 433 398 pack f f f;
#X text 379 256 pitch height ex.1;
#X floatatom 292 88 5 0 0 0 - - -, f 5;
#X obj 292 47 r pitch1;
#X floatatom 292 154 5 0 0 0 - - -, f 5;
#X floatatom 407 153 5 0 0 0 - - -, f 5;
#X floatatom 330 155 5 0 0 0 - - -, f 5;
#X floatatom 311 174 5 0 0 0 - - -, f 5;
#X floatatom 388 182 5 0 0 0 - - -, f 5;
#X obj 311 208 expr 4 - $f1;
#X obj 311 341 s cen;
#X obj 311 318 line;
#X msg 311 293 \$1 250;
#X obj 311 236 + 1.0001;
#X msg 350 81 dorian;
#X floatatom 369 155 5 0 0 0 - - -, f 5;
#X text 401 164 asymm;
#X text 423 180 asymm+pcd;
#X obj 396 208 s raa;
#X obj 450 196 s raapcd;
#X obj 292 128 lerdahl 7, f 23;
#X obj 770 352 outlet;
#X obj 559 444 s boid-params;
#X obj 689 31 inlet;
#X obj 696 249 smooth-xyz;
#N canvas 754 114 187 545 init 0;
#X obj 34 21 loadbang;
#X obj 94 21 r reset;
#X msg 15 78 \; neighbors 4;
#X msg 15 168 \; center 1;
#X msg 15 228 \; match 1;
#X msg 15 318 \; edgedist 1;
#X msg 15 348 \; speed 3;
#X obj 16 49 b;
#X obj 17 21 bng 15 250 50 0 empty empty empty 0 -6 0 8 -262144 -1
-1;
#X msg 15 258 \; avoid 2;
#X msg 15 288 \; repel 2;
#X msg 15 378 \; inertia 8;
#X msg 15 138 \; minspeed 1;
#X msg 15 198 \; attract 3;
#X msg 15 408 \; accel 2;
#X msg 15 438 \; prefdist 1.5;
#X msg 15 108 \; maxspeed 3;
#X connect 0 0 7 0;
#X connect 1 0 7 0;
#X connect 7 0 2 0;
#X connect 7 0 16 0;
#X connect 7 0 12 0;
#X connect 7 0 3 0;
#X connect 7 0 13 0;
#X connect 7 0 4 0;
#X connect 7 0 9 0;
#X connect 7 0 10 0;
#X connect 7 0 6 0;
#X connect 7 0 11 0;
#X connect 7 0 14 0;
#X connect 7 0 15 0;
#X connect 8 0 7 0;
#X restore 763 392 pd init;
#X msg 884 100 neighbors \$1;
#X floatatom 884 85 5 0 4 0 - neighbors -, f 5;
#X floatatom 884 120 5 0 0 0 - maxspeed -, f 5;
#X msg 884 135 maxspeed \$1;
#X floatatom 884 155 5 0 0 0 - minspeed -, f 5;
#X msg 884 170 minspeed \$1;
#X floatatom 884 190 5 0 0 0 - center -, f 5;
#X msg 884 205 center \$1;
#X floatatom 884 225 5 0 0 0 - attract -, f 5;
#X msg 884 240 attract \$1;
#X floatatom 884 260 5 0 0 0 - match -, f 5;
#X msg 884 275 match \$1;
#X floatatom 884 295 5 0 0 0 - avoid -, f 5;
#X msg 884 310 avoid \$1;
#X floatatom 884 330 5 0 0 0 - repel -, f 5;
#X msg 884 345 repel \$1;
#X floatatom 884 365 5 0 0 0 - edgedist -, f 5;
#X msg 884 380 edgedist \$1;
#X floatatom 884 400 5 0 0 0 - speed -, f 5;
#X msg 884 415 speed \$1;
#X floatatom 884 435 5 0 0 0 - inertia -, f 5;
#X msg 884 450 inertia \$1;
#X floatatom 884 470 5 0 0 0 - accel -, f 5;
#X msg 884 485 accel \$1;
#X floatatom 884 505 5 0 0 0 - prefdist -, f 5;
#X msg 884 520 prefdist \$1;
#X text 975 135 maximum speed of speed range;
#X text 977 169 minimum speed of speed range;
#X text 974 204 strength of centering instinct;
#X text 976 415 overall speed;
#X text 977 486 speed of acceleration;
#X text 977 517 preferred distance from neighbors;
#X floatatom 885 543 5 0 0 0 - flyrect[0] -, f 5;
#X floatatom 924 543 5 0 0 0 - flyrect[1] -, f 5;
#X floatatom 963 543 5 0 0 0 - flyrect[2] -, f 5;
#X floatatom 1002 543 5 0 0 0 - - -, f 5;
#X floatatom 884 602 5 0 0 0 - - -, f 5;
#X floatatom 924 602 5 0 0 0 - - -, f 5;
#X floatatom 884 50 5 0 0 0 - - -, f 5;
#X msg 884 65 number \$1;
#X text 975 63 number of boids;
#X obj 884 663 s boidParam;
#X text 975 98 number of neighbors each boid consults when flocking
;
#X text 974 275 strength of neighbor speed matching instinct;
#X text 974 310 strength of neighbor avoidance instinct;
#X text 974 342 strength of wall avoidance instinct;
#X text 976 378 distance of vision for avoiding wall edges;
#X text 977 449 willingness to change speed and direction;
#X text 973 238 strength of attraction to 'attractpt';
#X msg 884 579 flyrect \$1 \$2 \$3 \$4 \$5 \$6;
#X text 1010 562 bounding box (walls) in which to fly (l/t/r/b/f/b)
;
#X text 1007 601 point to which boids are attracted (x/y/z);
#X obj 884 561 pack 0 0 0 0 0 0;
#X msg 884 639 attractpt \$1 \$2 \$3;
#X obj 884 619 pack 0 0 0;
#X floatatom 963 602 5 0 0 0 - - -, f 5;
#X obj 713 168 r boidParam;
#X obj 687 195 boids/boids3d 8;
#X connect 0 0 31 0;
#X connect 1 0 7 0;
#X connect 2 0 29 0;
#X connect 3 0 5 0;
#X connect 4 0 6 0;
#X connect 5 0 7 0;
#X connect 5 1 7 1;
#X connect 6 0 7 0;
#X connect 6 1 7 2;
#X connect 7 0 2 0;
#X connect 9 0 27 0;
#X connect 10 0 9 0;
#X connect 14 0 16 0;
#X connect 15 0 26 0;
#X connect 16 0 20 0;
#X connect 18 0 17 0;
#X connect 19 0 18 0;
#X connect 20 0 5 0;
#X connect 20 0 19 0;
#X connect 21 0 27 0;
#X connect 22 0 25 0;
#X connect 27 0 11 0;
#X connect 27 1 14 0;
#X connect 27 2 13 0;
#X connect 27 4 22 0;
#X connect 27 5 15 0;
#X connect 27 6 12 0;
#X connect 30 0 90 0;
#X connect 31 0 28 0;
#X connect 33 0 74 0;
#X connect 34 0 33 0;
#X connect 35 0 36 0;
#X connect 36 0 74 0;
#X connect 37 0 38 0;
#X connect 38 0 74 0;
#X connect 39 0 40 0;
#X connect 40 0 74 0;
#X connect 41 0 42 0;
#X connect 42 0 74 0;
#X connect 43 0 44 0;
#X connect 44 0 74 0;
#X connect 45 0 46 0;
#X connect 46 0 74 0;
#X connect 47 0 48 0;
#X connect 48 0 74 0;
#X connect 49 0 50 0;
#X connect 50 0 74 0;
#X connect 51 0 52 0;
#X connect 52 0 74 0;
#X connect 53 0 54 0;
#X connect 54 0 74 0;
#X connect 55 0 56 0;
#X connect 56 0 74 0;
#X connect 57 0 58 0;
#X connect 58 0 74 0;
#X connect 65 0 85 0;
#X connect 66 0 85 1;
#X connect 67 0 85 2;
#X connect 68 0 85 3;
#X connect 69 0 87 0;
#X connect 70 0 87 1;
#X connect 71 0 72 0;
#X connect 72 0 74 0;
#X connect 82 0 74 0;
#X connect 85 0 82 0;
#X connect 86 0 74 0;
#X connect 87 0 86 0;
#X connect 88 0 87 2;
#X connect 89 0 90 0;
#X connect 90 0 0 0;
#X restore 242 439 pd boids;
#X floatatom 341 443 5 0 0 0 - - -, f 5;
#X obj 46 39 adc~ 1;
#X obj 161 69 metro 5;
#X obj 218 472 mux - -;
#X obj 382 253 f;
#X floatatom 111 372 5 0 0 0 - - -, f 5;
#X msg 218 520 send /ball1 \$1 \$2 \$3;
#X obj 242 548 packOSC;
#X obj 420 318 adc~ 1;
#X obj 424 349 dac~ 1 2;
#X obj 108 348 expr if($f1 < 0.5 \, 1 \, 0);
#X obj 176 273 smooth-xyz-bfcc;
#X obj 225 495 smooth-xyz-final;
#X obj 410 109 t b b;
#X obj 659 273 smooth-xyz;
#X obj 1061 268 smooth-xyz;
#X obj 1071 818 smooth-xyz;
#X obj 669 823 smooth-xyz;
#X obj 186 823 smooth-xyz;
#X obj 1458 824 smooth-xyz;
#X obj 1448 274 smooth-xyz;
#X connect 0 0 1 0;
#X connect 1 0 13 0;
#X connect 1 1 2 0;
#X connect 1 1 6 0;
#X connect 2 1 129 0;
#X connect 3 0 232 0;
#X connect 4 0 5 0;
#X connect 6 1 241 0;
#X connect 7 0 4 0;
#X connect 8 0 4 0;
#X connect 9 0 4 0;
#X connect 10 0 12 0;
#X connect 10 0 126 0;
#X connect 10 0 154 0;
#X connect 10 0 240 0;
#X connect 11 0 10 0;
#X connect 14 0 15 0;
#X connect 15 0 24 0;
#X connect 15 1 16 0;
#X connect 15 1 20 0;
#X connect 16 1 130 0;
#X connect 17 0 14 0;
#X connect 18 0 17 0;
#X connect 19 0 5 0;
#X connect 20 1 244 0;
#X connect 21 0 137 0;
#X connect 22 0 14 0;
#X connect 25 0 19 0;
#X connect 26 0 19 0;
#X connect 27 0 19 0;
#X connect 28 0 19 0;
#X connect 29 0 30 0;
#X connect 30 0 39 0;
#X connect 30 1 31 0;
#X connect 30 1 35 0;
#X connect 31 1 131 0;
#X connect 32 0 29 0;
#X connect 33 0 32 0;
#X connect 34 0 5 0;
#X connect 35 1 245 0;
#X connect 36 0 138 0;
#X connect 37 0 29 0;
#X connect 40 0 34 0;
#X connect 41 0 34 0;
#X connect 42 0 34 0;
#X connect 43 0 44 0;
#X connect 43 0 139 0;
#X connect 44 0 45 0;
#X connect 45 0 54 0;
#X connect 45 1 46 0;
#X connect 45 1 50 0;
#X connect 46 1 136 0;
#X connect 47 0 44 0;
#X connect 48 0 47 0;
#X connect 49 0 5 0;
#X connect 50 1 248 0;
#X connect 51 0 139 0;
#X connect 52 0 44 0;
#X connect 55 0 56 0;
#X connect 56 0 65 0;
#X connect 56 1 57 0;
#X connect 56 1 61 0;
#X connect 57 1 135 0;
#X connect 58 0 55 0;
#X connect 59 0 58 0;
#X connect 60 0 5 0;
#X connect 61 1 247 0;
#X connect 62 0 140 0;
#X connect 63 0 55 0;
#X connect 66 0 55 0;
#X connect 66 0 140 0;
#X connect 67 0 68 0;
#X connect 68 0 77 0;
#X connect 68 1 69 0;
#X connect 68 1 73 0;
#X connect 69 1 134 0;
#X connect 70 0 67 0;
#X connect 71 0 70 0;
#X connect 72 0 5 0;
#X connect 73 1 246 0;
#X connect 74 0 141 0;
#X connect 75 0 67 0;
#X connect 78 0 67 0;
#X connect 78 0 141 0;
#X connect 79 0 29 0;
#X connect 79 0 138 0;
#X connect 79 0 204 0;
#X connect 79 0 223 0;
#X connect 80 0 81 0;
#X connect 81 0 90 0;
#X connect 81 1 82 0;
#X connect 81 1 86 0;
#X connect 82 1 132 0;
#X connect 83 0 80 0;
#X connect 84 0 83 0;
#X connect 85 0 5 0;
#X connect 86 1 250 0;
#X connect 87 0 142 0;
#X connect 88 0 80 0;
#X connect 91 0 92 0;
#X connect 92 0 101 0;
#X connect 92 1 93 0;
#X connect 92 1 97 0;
#X connect 93 1 133 0;
#X connect 94 0 91 0;
#X connect 95 0 94 0;
#X connect 96 0 5 0;
#X connect 97 1 249 0;
#X connect 98 0 143 0;
#X connect 99 0 91 0;
#X connect 102 0 80 0;
#X connect 102 0 142 0;
#X connect 102 0 215 0;
#X connect 102 0 224 0;
#X connect 103 0 91 0;
#X connect 103 0 143 0;
#X connect 104 0 85 0;
#X connect 105 0 85 0;
#X connect 106 0 85 0;
#X connect 107 0 85 0;
#X connect 108 0 60 0;
#X connect 109 0 60 0;
#X connect 110 0 60 0;
#X connect 111 0 60 0;
#X connect 112 0 49 0;
#X connect 113 0 49 0;
#X connect 114 0 49 0;
#X connect 115 0 49 0;
#X connect 116 0 72 0;
#X connect 117 0 72 0;
#X connect 118 0 72 0;
#X connect 119 0 72 0;
#X connect 120 0 96 0;
#X connect 121 0 96 0;
#X connect 122 0 96 0;
#X connect 123 0 96 0;
#X connect 124 0 34 0;
#X connect 127 0 5 0;
#X connect 129 0 7 0;
#X connect 129 1 8 0;
#X connect 129 2 9 0;
#X connect 130 0 28 0;
#X connect 130 1 27 0;
#X connect 130 2 26 0;
#X connect 131 0 40 0;
#X connect 131 1 41 0;
#X connect 131 2 42 0;
#X connect 132 0 107 0;
#X connect 132 1 106 0;
#X connect 132 2 105 0;
#X connect 133 0 120 0;
#X connect 133 1 121 0;
#X connect 133 2 122 0;
#X connect 134 0 119 0;
#X connect 134 1 118 0;
#X connect 134 2 117 0;
#X connect 135 0 111 0;
#X connect 135 1 110 0;
#X connect 135 2 109 0;
#X connect 136 0 112 0;
#X connect 136 1 113 0;
#X connect 136 2 114 0;
#X connect 137 0 23 0;
#X connect 137 0 128 0;
#X connect 137 0 162 0;
#X connect 138 0 38 0;
#X connect 138 0 163 0;
#X connect 138 0 169 0;
#X connect 139 0 53 0;
#X connect 139 0 168 0;
#X connect 140 0 64 0;
#X connect 140 0 167 0;
#X connect 141 0 76 0;
#X connect 141 0 166 0;
#X connect 142 0 89 0;
#X connect 142 0 164 0;
#X connect 142 0 170 0;
#X connect 143 0 100 0;
#X connect 143 0 165 0;
#X connect 144 0 0 0;
#X connect 145 0 14 0;
#X connect 145 0 137 0;
#X connect 145 0 192 0;
#X connect 145 0 222 0;
#X connect 153 0 4 0;
#X connect 154 0 153 0;
#X connect 155 0 19 0;
#X connect 156 0 34 0;
#X connect 157 0 85 0;
#X connect 158 0 49 0;
#X connect 159 0 60 0;
#X connect 160 0 72 0;
#X connect 161 0 96 0;
#X connect 162 0 155 0;
#X connect 163 0 156 0;
#X connect 164 0 157 0;
#X connect 165 0 161 0;
#X connect 166 0 160 0;
#X connect 167 0 159 0;
#X connect 168 0 158 0;
#X connect 171 0 145 0;
#X connect 172 2 173 0;
#X connect 173 0 174 0;
#X connect 173 0 226 0;
#X connect 173 0 243 0;
#X connect 174 0 178 0;
#X connect 176 0 5 0;
#X connect 177 0 182 0;
#X connect 178 0 182 0;
#X connect 180 0 179 0;
#X connect 180 0 183 0;
#X connect 180 0 186 0;
#X connect 181 0 4 0;
#X connect 182 0 181 0;
#X connect 183 0 184 0;
#X connect 183 0 184 1;
#X connect 185 0 234 1;
#X connect 186 0 185 0;
#X connect 187 0 188 0;
#X connect 187 0 189 0;
#X connect 188 0 190 0;
#X connect 189 0 193 0;
#X connect 190 0 193 0;
#X connect 192 0 191 0;
#X connect 192 0 195 0;
#X connect 192 0 198 0;
#X connect 193 0 199 0;
#X connect 194 0 193 0;
#X connect 194 1 193 1;
#X connect 195 0 196 0;
#X connect 195 0 196 1;
#X connect 198 0 197 0;
#X connect 198 0 194 0;
#X connect 199 0 19 0;
#X connect 200 0 201 0;
#X connect 200 0 202 0;
#X connect 201 0 203 0;
#X connect 202 0 205 0;
#X connect 203 0 205 0;
#X connect 204 0 206 0;
#X connect 204 0 209 0;
#X connect 205 0 210 0;
#X connect 206 0 207 0;
#X connect 206 0 207 1;
#X connect 209 0 208 0;
#X connect 210 0 34 0;
#X connect 211 0 212 0;
#X connect 211 0 213 0;
#X connect 212 0 214 0;
#X connect 213 0 216 0;
#X connect 214 0 216 0;
#X connect 215 0 217 0;
#X connect 215 0 220 0;
#X connect 216 0 221 0;
#X connect 217 0 218 0;
#X connect 217 0 218 1;
#X connect 220 0 219 0;
#X connect 221 0 85 0;
#X connect 222 2 187 0;
#X connect 223 2 200 0;
#X connect 224 2 211 0;
#X connect 225 0 228 0;
#X connect 226 0 227 0;
#X connect 226 0 225 0;
#X connect 227 0 226 1;
#X connect 229 0 233 1;
#X connect 230 0 233 2;
#X connect 231 0 0 0;
#X connect 231 0 10 0;
#X connect 231 0 172 0;
#X connect 231 0 180 0;
#X connect 232 0 0 0;
#X connect 232 0 180 0;
#X connect 232 0 229 0;
#X connect 233 0 242 0;
#X connect 234 0 182 1;
#X connect 236 0 237 0;
#X connect 237 0 5 0;
#X connect 238 0 239 0;
#X connect 238 0 239 1;
#X connect 240 0 235 0;
#X connect 240 0 230 0;
#X connect 241 0 125 0;
#X connect 241 0 233 0;
#X connect 242 0 236 0;
#X connect 243 0 177 0;
#X connect 243 1 234 0;
#X connect 244 0 25 0;
#X connect 244 0 146 0;
#X connect 245 0 124 0;
#X connect 245 0 147 0;
#X connect 246 0 116 0;
#X connect 246 0 151 0;
#X connect 247 0 108 0;
#X connect 247 0 150 0;
#X connect 248 0 115 0;
#X connect 248 0 149 0;
#X connect 249 0 123 0;
#X connect 249 0 152 0;
#X connect 250 0 104 0;
#X connect 250 0 148 0;
