#N canvas 15 23 1571 930 10;
#X obj 224 235 /~ 3.14159;
#X obj 22 226 -~;
#X obj 71 330 grambipan~, f 26;
#X obj 224 256 *~ -1;
#X obj 224 279 +~ 1;
#X obj 71 209 abs~;
#X obj 147 274 /~ 6.28319;
#X obj 71 294 *~;
#X msg 112 278 az 0;
#X msg 112 302 el 0;
#X obj 22 277 lop~ 1;
#X obj 22 199 sig~ 4;
#N canvas 0 22 450 300 cartosphere 0;
#X obj 106 99 sig~;
#X obj 139 99 sig~;
#X obj 36 152 *~;
#X obj 36 66 sig~;
#X obj 106 152 *~;
#X obj 176 99 sig~;
#X obj 209 99 sig~;
#X obj 176 74 sin;
#X obj 209 75 cos;
#X obj 36 174 *~;
#X obj 106 174 *~;
#X obj 177 174 *~;
#X obj 106 74 cos;
#X obj 139 75 sin;
#X connect 0 0 2 1;
#X connect 1 0 4 1;
#X connect 2 0 9 0;
#X connect 3 0 2 0;
#X connect 3 0 4 0;
#X connect 3 0 11 0;
#X connect 4 0 10 0;
#X connect 5 0 9 1;
#X connect 5 0 10 1;
#X connect 6 0 11 1;
#X connect 7 0 5 0;
#X connect 8 0 6 0;
#X connect 12 0 0 0;
#X connect 13 0 1 0;
#X restore 640 496 pd cartosphere;
#N canvas 0 22 1440 809 cube-meters 0;
#X obj 109 274 grambidec~ cube, f 28;
#X obj 382 291 vu-meter~;
#X obj 471 291 vu-meter~;
#X obj 562 291 vu-meter~;
#X obj 656 291 vu-meter~;
#X obj 758 291 vu-meter~;
#X obj 851 291 vu-meter~;
#X obj 939 291 vu-meter~;
#X obj 1031 291 vu-meter~;
#X connect 0 0 1 0;
#X connect 0 1 2 0;
#X connect 0 2 3 0;
#X connect 0 3 4 0;
#X connect 0 4 5 0;
#X connect 0 5 6 0;
#X connect 0 6 7 0;
#X connect 0 7 8 0;
#X restore 462 496 pd cube-meters;
#X obj 520 207 /~ 3.14159;
#X obj 298 244 -~;
#X obj 367 348 grambipan~, f 26;
#X obj 367 144 sig~;
#X obj 443 138 sig~;
#X obj 520 138 sig~;
#X obj 520 228 *~ -1;
#X obj 520 251 +~ 1;
#X obj 367 227 abs~;
#X obj 443 231 /~ 6.28319;
#X obj 367 121 unpack f f f;
#X obj 367 312 *~;
#X obj 443 306 lop~ 1;
#X obj 520 313 lop~ 1;
#X obj 298 295 lop~ 1;
#X obj 298 270 clip~ 0 4;
#X obj 298 217 sig~ 4;
#X obj 520 289 clip~ 0.25 0.75;
#X obj 367 97 r string-2;
#X obj 147 300 lop~ 1;
#X obj 224 302 lop~ 1;
#X obj 71 150 sig~;
#X obj 147 149 sig~;
#X obj 224 149 sig~;
#X obj 367 182 pcartosphe.expr~, f 26;
#X obj 71 173 pcartosphe~, f 26;
#X obj 71 79 unpack f f f;
#X obj 71 24 r string-1;
#X obj 74 102 hsl 128 15 -1 1 0 0 empty empty empty -2 -8 0 10 -262144
-1 -1 12700 1;
#X obj 150 118 hsl 128 15 -1 1 0 0 empty empty empty -2 -8 0 10 -262144
-1 -1 12700 1;
#X obj 227 133 hsl 128 15 -1 1 0 0 empty empty empty -2 -8 0 10 -262144
-1 -1 12700 1;
#X obj 71 56 speedlim 150;
#X obj 840 198 /~ 3.14159;
#X obj 622 235 -~;
#X obj 687 339 grambipan~, f 26;
#X obj 687 135 sig~;
#X obj 763 129 sig~;
#X obj 840 129 sig~;
#X obj 840 219 *~ -1;
#X obj 840 242 +~ 1;
#X obj 687 218 abs~;
#X obj 763 222 /~ 6.28319;
#X obj 687 112 unpack f f f;
#X obj 687 303 *~;
#X obj 763 297 lop~ 1;
#X obj 840 304 lop~ 1;
#X obj 622 286 lop~ 1;
#X obj 622 261 clip~ 0 4;
#X obj 622 208 sig~ 4;
#X obj 840 280 clip~ 0.25 0.75;
#X obj 687 274 *~ 1;
#X obj 687 173 pcartosphe.expr~, f 26;
#X obj 687 88 r string-3;
#X obj 687 245 adc~ 3;
#X obj 1175 190 /~ 3.14159;
#X obj 957 227 -~;
#X obj 1022 331 grambipan~, f 26;
#X obj 1022 127 sig~;
#X obj 1098 121 sig~;
#X obj 1175 121 sig~;
#X obj 1175 211 *~ -1;
#X obj 1175 234 +~ 1;
#X obj 1022 210 abs~;
#X obj 1098 214 /~ 6.28319;
#X obj 1022 104 unpack f f f;
#X obj 1022 295 *~;
#X obj 1098 289 lop~ 1;
#X obj 1175 296 lop~ 1;
#X obj 957 278 lop~ 1;
#X obj 957 253 clip~ 0 4;
#X obj 957 200 sig~ 4;
#X obj 1175 272 clip~ 0.25 0.75;
#X obj 1022 266 *~ 1;
#X obj 1022 165 pcartosphe.expr~, f 26;
#X obj 1022 237 adc~ 4;
#X obj 1022 80 r string-4;
#X obj 242 678 /~ 3.14159;
#X obj 40 669 -~;
#X obj 89 773 grambipan~, f 26;
#X obj 242 699 *~ -1;
#X obj 242 722 +~ 1;
#X obj 89 652 abs~;
#X obj 165 717 /~ 6.28319;
#X obj 89 737 *~;
#X msg 130 721 az 0;
#X msg 130 745 el 0;
#X obj 40 720 lop~ 1;
#X obj 40 642 sig~ 4;
#X obj 89 708 *~ 1;
#X obj 538 650 /~ 3.14159;
#X obj 316 687 -~;
#X obj 385 782 grambipan~, f 26;
#X obj 385 587 sig~;
#X obj 461 581 sig~;
#X obj 538 581 sig~;
#X obj 538 671 *~ -1;
#X obj 538 694 +~ 1;
#X obj 385 670 abs~;
#X obj 461 674 /~ 6.28319;
#X obj 385 564 unpack f f f;
#X obj 385 755 *~;
#X obj 461 749 lop~ 1;
#X obj 538 756 lop~ 1;
#X obj 316 738 lop~ 1;
#X obj 316 713 clip~ 0 4;
#X obj 316 660 sig~ 4;
#X obj 538 732 clip~ 0.25 0.75;
#X obj 385 726 *~ 1;
#X obj 165 743 lop~ 1;
#X obj 242 745 lop~ 1;
#X obj 89 593 sig~;
#X obj 165 592 sig~;
#X obj 242 592 sig~;
#X obj 385 625 pcartosphe.expr~, f 26;
#X obj 89 616 pcartosphe~, f 26;
#X obj 89 522 unpack f f f;
#X obj 92 545 hsl 128 15 -1 1 0 0 empty empty empty -2 -8 0 10 -262144
-1 -1 0 1;
#X obj 168 561 hsl 128 15 -1 1 0 0 empty empty empty -2 -8 0 10 -262144
-1 -1 0 1;
#X obj 245 576 hsl 128 15 -1 1 0 0 empty empty empty -2 -8 0 10 -262144
-1 -1 0 1;
#X obj 89 499 speedlim 150;
#X obj 858 641 /~ 3.14159;
#X obj 640 678 -~;
#X obj 705 782 grambipan~, f 26;
#X obj 705 578 sig~;
#X obj 781 572 sig~;
#X obj 858 572 sig~;
#X obj 858 662 *~ -1;
#X obj 858 685 +~ 1;
#X obj 705 661 abs~;
#X obj 781 665 /~ 6.28319;
#X obj 705 555 unpack f f f;
#X obj 705 746 *~;
#X obj 781 740 lop~ 1;
#X obj 858 747 lop~ 1;
#X obj 640 729 lop~ 1;
#X obj 640 704 clip~ 0 4;
#X obj 640 651 sig~ 4;
#X obj 858 723 clip~ 0.25 0.75;
#X obj 705 717 *~ 1;
#X obj 705 616 pcartosphe.expr~, f 26;
#X obj 1193 633 /~ 3.14159;
#X obj 975 670 -~;
#X obj 1040 774 grambipan~, f 26;
#X obj 1040 570 sig~;
#X obj 1116 564 sig~;
#X obj 1193 564 sig~;
#X obj 1193 654 *~ -1;
#X obj 1193 677 +~ 1;
#X obj 1040 653 abs~;
#X obj 1116 657 /~ 6.28319;
#X obj 1040 547 unpack f f f;
#X obj 1040 738 *~;
#X obj 1116 732 lop~ 1;
#X obj 1193 739 lop~ 1;
#X obj 975 721 lop~ 1;
#X obj 975 696 clip~ 0 4;
#X obj 975 643 sig~ 4;
#X obj 1193 715 clip~ 0.25 0.75;
#X obj 1040 709 *~ 1;
#X obj 1040 608 pcartosphe.expr~, f 26;
#X obj 89 467 r string-5;
#X obj 385 540 r string-6;
#X obj 705 531 r string-7;
#X obj 1040 523 r string-8;
#X obj 1040 680 adc~ 8;
#X obj 705 688 adc~ 7;
#X obj 385 697 adc~ 6;
#X obj 89 679 adc~ 5;
#X obj 70 235 r~ one;
#X obj 367 255 r~ two;
#X obj 71 265 *~ 0.2;
#X obj 367 283 *~ 0.2;
#X obj 558 496 dac~ 1 2 3 4;
#X connect 0 0 3 0;
#X connect 1 0 10 0;
#X connect 2 0 186 0;
#X connect 2 1 186 1;
#X connect 2 2 186 2;
#X connect 2 3 186 3;
#X connect 3 0 4 0;
#X connect 4 0 34 0;
#X connect 5 0 1 1;
#X connect 6 0 33 0;
#X connect 7 0 2 0;
#X connect 8 0 2 0;
#X connect 9 0 2 0;
#X connect 10 0 7 1;
#X connect 11 0 1 0;
#X connect 14 0 20 0;
#X connect 15 0 29 0;
#X connect 16 0 186 0;
#X connect 16 1 186 1;
#X connect 16 2 186 2;
#X connect 16 3 186 3;
#X connect 17 0 38 0;
#X connect 18 0 38 1;
#X connect 19 0 38 2;
#X connect 20 0 21 0;
#X connect 21 0 31 0;
#X connect 22 0 15 1;
#X connect 23 0 26 0;
#X connect 24 0 17 0;
#X connect 24 1 18 0;
#X connect 24 2 19 0;
#X connect 25 0 16 0;
#X connect 26 0 16 1;
#X connect 27 0 16 2;
#X connect 28 0 25 1;
#X connect 29 0 28 0;
#X connect 30 0 15 0;
#X connect 31 0 27 0;
#X connect 32 0 24 0;
#X connect 33 0 2 1;
#X connect 34 0 2 2;
#X connect 35 0 39 0;
#X connect 36 0 39 1;
#X connect 37 0 39 2;
#X connect 38 0 22 0;
#X connect 38 1 23 0;
#X connect 38 2 14 0;
#X connect 39 0 5 0;
#X connect 39 1 6 0;
#X connect 39 2 0 0;
#X connect 40 0 42 0;
#X connect 40 1 43 0;
#X connect 40 2 44 0;
#X connect 41 0 45 0;
#X connect 42 0 35 0;
#X connect 43 0 36 0;
#X connect 44 0 37 0;
#X connect 45 0 40 0;
#X connect 46 0 52 0;
#X connect 47 0 61 0;
#X connect 48 0 186 0;
#X connect 48 1 186 1;
#X connect 48 2 186 2;
#X connect 48 3 186 3;
#X connect 49 0 65 0;
#X connect 50 0 65 1;
#X connect 51 0 65 2;
#X connect 52 0 53 0;
#X connect 53 0 63 0;
#X connect 54 0 47 1;
#X connect 55 0 58 0;
#X connect 56 0 49 0;
#X connect 56 1 50 0;
#X connect 56 2 51 0;
#X connect 57 0 48 0;
#X connect 58 0 48 1;
#X connect 59 0 48 2;
#X connect 60 0 57 1;
#X connect 61 0 60 0;
#X connect 62 0 47 0;
#X connect 63 0 59 0;
#X connect 64 0 57 0;
#X connect 65 0 54 0;
#X connect 65 1 55 0;
#X connect 65 2 46 0;
#X connect 66 0 56 0;
#X connect 67 0 64 0;
#X connect 68 0 74 0;
#X connect 69 0 83 0;
#X connect 70 0 186 0;
#X connect 70 1 186 1;
#X connect 70 2 186 2;
#X connect 70 3 186 3;
#X connect 71 0 87 0;
#X connect 72 0 87 1;
#X connect 73 0 87 2;
#X connect 74 0 75 0;
#X connect 75 0 85 0;
#X connect 76 0 69 1;
#X connect 77 0 80 0;
#X connect 78 0 71 0;
#X connect 78 1 72 0;
#X connect 78 2 73 0;
#X connect 79 0 70 0;
#X connect 80 0 70 1;
#X connect 81 0 70 2;
#X connect 82 0 79 1;
#X connect 83 0 82 0;
#X connect 84 0 69 0;
#X connect 85 0 81 0;
#X connect 86 0 79 0;
#X connect 87 0 76 0;
#X connect 87 1 77 0;
#X connect 87 2 68 0;
#X connect 88 0 86 0;
#X connect 89 0 78 0;
#X connect 90 0 93 0;
#X connect 91 0 100 0;
#X connect 92 0 186 0;
#X connect 92 1 186 1;
#X connect 92 2 186 2;
#X connect 92 3 186 3;
#X connect 93 0 94 0;
#X connect 94 0 123 0;
#X connect 95 0 91 1;
#X connect 96 0 122 0;
#X connect 97 0 92 0;
#X connect 98 0 92 0;
#X connect 99 0 92 0;
#X connect 100 0 97 1;
#X connect 101 0 91 0;
#X connect 102 0 97 0;
#X connect 103 0 109 0;
#X connect 104 0 118 0;
#X connect 105 0 186 0;
#X connect 105 1 186 1;
#X connect 105 2 186 2;
#X connect 105 3 186 3;
#X connect 106 0 127 0;
#X connect 107 0 127 1;
#X connect 108 0 127 2;
#X connect 109 0 110 0;
#X connect 110 0 120 0;
#X connect 111 0 104 1;
#X connect 112 0 115 0;
#X connect 113 0 106 0;
#X connect 113 1 107 0;
#X connect 113 2 108 0;
#X connect 114 0 105 0;
#X connect 115 0 105 1;
#X connect 116 0 105 2;
#X connect 117 0 114 1;
#X connect 118 0 117 0;
#X connect 119 0 104 0;
#X connect 120 0 116 0;
#X connect 121 0 114 0;
#X connect 122 0 92 1;
#X connect 123 0 92 2;
#X connect 124 0 128 0;
#X connect 125 0 128 1;
#X connect 126 0 128 2;
#X connect 127 0 111 0;
#X connect 127 1 112 0;
#X connect 127 2 103 0;
#X connect 128 0 95 0;
#X connect 128 1 96 0;
#X connect 128 2 90 0;
#X connect 129 0 130 0;
#X connect 129 1 131 0;
#X connect 129 2 132 0;
#X connect 130 0 124 0;
#X connect 131 0 125 0;
#X connect 132 0 126 0;
#X connect 133 0 129 0;
#X connect 134 0 140 0;
#X connect 135 0 149 0;
#X connect 136 0 186 0;
#X connect 136 1 186 1;
#X connect 136 2 186 2;
#X connect 136 3 186 3;
#X connect 137 0 153 0;
#X connect 138 0 153 1;
#X connect 139 0 153 2;
#X connect 140 0 141 0;
#X connect 141 0 151 0;
#X connect 142 0 135 1;
#X connect 143 0 146 0;
#X connect 144 0 137 0;
#X connect 144 1 138 0;
#X connect 144 2 139 0;
#X connect 145 0 136 0;
#X connect 146 0 136 1;
#X connect 147 0 136 2;
#X connect 148 0 145 1;
#X connect 149 0 148 0;
#X connect 150 0 135 0;
#X connect 151 0 147 0;
#X connect 152 0 145 0;
#X connect 153 0 142 0;
#X connect 153 1 143 0;
#X connect 153 2 134 0;
#X connect 154 0 160 0;
#X connect 155 0 169 0;
#X connect 156 0 186 0;
#X connect 156 1 186 1;
#X connect 156 2 186 2;
#X connect 156 3 186 3;
#X connect 157 0 173 0;
#X connect 158 0 173 1;
#X connect 159 0 173 2;
#X connect 160 0 161 0;
#X connect 161 0 171 0;
#X connect 162 0 155 1;
#X connect 163 0 166 0;
#X connect 164 0 157 0;
#X connect 164 1 158 0;
#X connect 164 2 159 0;
#X connect 165 0 156 0;
#X connect 166 0 156 1;
#X connect 167 0 156 2;
#X connect 168 0 165 1;
#X connect 169 0 168 0;
#X connect 170 0 155 0;
#X connect 171 0 167 0;
#X connect 172 0 165 0;
#X connect 173 0 162 0;
#X connect 173 1 163 0;
#X connect 173 2 154 0;
#X connect 174 0 133 0;
#X connect 175 0 113 0;
#X connect 176 0 144 0;
#X connect 177 0 164 0;
#X connect 178 0 172 0;
#X connect 179 0 152 0;
#X connect 180 0 121 0;
#X connect 181 0 102 0;
#X connect 182 0 184 0;
#X connect 183 0 185 0;
#X connect 184 0 7 0;
#X connect 185 0 25 0;
