#N canvas 179 310 1143 407 10;
#X obj 17 40 inlet~;
#X obj 54 243 inlet;
#X obj 17 359 outlet;
#X obj 54 333 outlet;
#X obj 92 310 outlet;
#X obj 277 196 outlet;
#X obj 92 179 amp~;
#X obj 17 162 *~ 1;
#X floatatom 104 196 5 0 0 0 - - -, f 5;
#X text 69 141 basic amp threshold set to 0.25 (inlet allows user to
set different value);
#X text 112 251 basic structure: helmholtz~ \, amp thresholding (2
values: incoming amp versus xf) \, sigmund~;
#X obj 17 268 attack~ - - -;
#X obj 178 285 outlet;
#X obj 439 32 r g-m1;
#X text 626 133 Average energy in filters instead of summing.;
#X text 625 117 Use power spectrum. (default: magnitude);
#X obj 439 80 zl slice 1;
#X obj 553 148 outlet;
#X obj 496 107 zl slice 6;
#N canvas 764 289 555 295 smooth 0;
#X obj 15 10 inlet;
#X obj 15 143 line;
#X obj 63 140 line;
#X obj 114 162 line;
#X obj 15 263 outlet;
#X text 135 29 scale to boids range (roughly);
#X msg 114 138 \$1 150;
#X msg 63 116 \$1 150;
#X msg 15 116 \$1 150;
#X obj 15 32 unpack f f f f f f;
#X obj 15 231 pack f f f f f f;
#X obj 209 214 line;
#X obj 240 100 line;
#X obj 363 214 line;
#X text 295 75 scale to boids range (roughly);
#X msg 363 190 \$1 150;
#X msg 240 76 \$1 150;
#X msg 209 191 \$1 150;
#X obj 63 89 maxlib/scale -10 10 -1 1;
#X obj 240 49 maxlib/scale -10 10 -1 1;
#X obj 209 168 maxlib/scale -10 10 -1 1;
#X obj 363 168 maxlib/scale -10 10 -1 1;
#X obj 114 117 maxlib/scale -10 10 -1 1;
#X obj 15 55 maxlib/scale -10 10 -1 1;
#X floatatom 26 88 5 0 0 0 - - -, f 5;
#X connect 0 0 9 0;
#X connect 1 0 10 0;
#X connect 2 0 10 1;
#X connect 3 0 10 2;
#X connect 6 0 3 0;
#X connect 7 0 2 0;
#X connect 8 0 1 0;
#X connect 9 0 23 0;
#X connect 9 0 24 0;
#X connect 9 1 18 0;
#X connect 9 2 22 0;
#X connect 9 3 20 0;
#X connect 9 4 19 0;
#X connect 9 5 21 0;
#X connect 10 0 4 0;
#X connect 11 0 10 3;
#X connect 12 0 10 4;
#X connect 13 0 10 5;
#X connect 15 0 13 0;
#X connect 16 0 12 0;
#X connect 17 0 11 0;
#X connect 18 0 7 0;
#X connect 19 0 16 0;
#X connect 20 0 17 0;
#X connect 21 0 15 0;
#X connect 22 0 6 0;
#X connect 23 0 8 0;
#X restore 553 127 pd smooth;
#X text 643 40 Normalize spectrum (default: ON);
#X obj 439 57 tID/bfcc~ 1024 0.5;
#X connect 0 0 7 0;
#X connect 0 0 21 0;
#X connect 1 0 11 1;
#X connect 6 0 5 0;
#X connect 6 0 8 0;
#X connect 6 0 11 2;
#X connect 7 0 6 0;
#X connect 7 0 11 0;
#X connect 11 0 2 0;
#X connect 11 1 3 0;
#X connect 11 2 4 0;
#X connect 11 3 12 0;
#X connect 13 0 21 0;
#X connect 16 1 18 0;
#X connect 18 1 19 0;
#X connect 19 0 17 0;
#X connect 21 0 16 0;
