#N canvas 244 23 1358 744 10;
#X obj 183 507 *~;
#X obj 228 217 +~;
#X obj 27 113 sig~;
#X obj 272 60 r gs;
#X obj 141 200 +~;
#X obj 228 165 *~;
#X obj 758 373 *~;
#X obj 622 178 wrap~;
#X obj 543 195 *~;
#X obj 718 212 +~;
#X obj 733 171 sig~;
#X obj 558 148 *~ 44.1;
#X obj 273 14 r \$0-b0;
#X obj 863 171 noise~;
#X obj 156 130 noise~;
#X obj 966 32 r rgs;
#X obj 389 131 line~;
#X obj 5 68 r \$0-b1;
#X obj 1004 49 t b b b;
#X obj 1100 66 s \$0-b0;
#X obj 1052 66 s \$0-b1;
#X obj 1004 66 s \$0-b2;
#N canvas 734 303 364 233 buf-set 0;
#X obj 9 40 t b b b;
#X obj 9 16 inlet;
#X obj 9 154 outlet;
#X obj 137 150 outlet;
#X obj 28 77 symbol \$2;
#X obj 99 70 f \$1;
#X obj 107 92 + 1;
#X obj 43 112 pack s f;
#X msg 42 133 set set \$1;
#X connect 0 0 2 0;
#X connect 0 1 4 0;
#X connect 0 2 5 0;
#X connect 1 0 0 0;
#X connect 4 0 7 0;
#X connect 5 0 6 0;
#X connect 7 0 8 0;
#X connect 8 0 3 0;
#X restore 5 294 pd buf-set;
#X obj 718 228 +~;
#X obj 307 60 r \$0-gs;
#X msg 62 311 set string1;
#X obj 228 94 /;
#X msg 172 77 1000;
#X obj 172 57 r \$0-b2;
#X obj 369 53 random;
#X obj 307 77 t b f;
#X obj 307 120 s \$0-gb;
#X obj 220 60 r \$0-gb;
#N canvas 890 359 488 377 pbs 0;
#X obj 145 167 phasor~;
#X msg 54 104 44100;
#X floatatom 54 78 5 0 0 0 - - -, f 5;
#X obj 57 59 hsl 128 15 -1 1 0 0 empty empty empty -2 -8 0 10 -262144
-1 -1 0 1;
#X obj 145 143 *~ 1;
#X obj 54 36 inlet;
#X obj 145 240 outlet~;
#X obj 220 194 inlet~;
#N canvas 950 474 450 300 rand-pb 0;
#X obj 62 200 outlet;
#X obj 62 128 random 10;
#X obj 62 152 / 5;
#X obj 62 174 - 1;
#X obj 62 106 loadbang;
#X connect 1 0 2 0;
#X connect 2 0 3 0;
#X connect 3 0 0 0;
#X connect 4 0 1 0;
#X restore 200 42 pd rand-pb;
#X obj 54 126 /~ 65536;
#X obj 145 188 *~ 65536;
#X obj 145 211 vsamphold~;
#X connect 0 0 10 0;
#X connect 1 0 9 0;
#X connect 2 0 1 0;
#X connect 2 0 4 1;
#X connect 3 0 2 0;
#X connect 4 0 0 0;
#X connect 5 0 3 0;
#X connect 7 0 11 1;
#X connect 8 0 3 0;
#X connect 9 0 4 0;
#X connect 10 0 11 0;
#X connect 11 0 6 0;
#X restore 540 247 pd pbs;
#X obj 540 227 r pbs;
#X obj 540 264 +~;
#N canvas 0 547 488 377 pbs 0;
#X msg 54 104 44100;
#X floatatom 54 78 5 0 0 0 - - -, f 5;
#X obj 57 59 hsl 128 15 -1 1 0 0 empty empty empty -2 -8 0 10 -262144
-1 -1 0 1;
#X obj 145 143 *~ 1;
#X obj 54 36 inlet;
#X obj 145 240 outlet~;
#X obj 220 194 inlet~;
#N canvas 1165 458 450 300 rand-pb 0;
#X obj 62 200 outlet;
#X obj 62 128 random 10;
#X obj 62 152 / 5;
#X obj 62 174 - 1;
#X obj 133 111 r rgs;
#X obj 62 106 loadbang;
#X connect 1 0 2 0;
#X connect 2 0 3 0;
#X connect 3 0 0 0;
#X connect 4 0 1 0;
#X connect 5 0 1 0;
#X restore 203 42 pd rand-pb;
#X msg 287 87 set \$1;
#X obj 287 64 r sr;
#X obj 145 167 vphasor~;
#X obj 145 188 *~ 88200;
#X obj 54 126 /~ 88200;
#X obj 145 211 vsamphold~;
#X connect 0 0 12 0;
#X connect 1 0 0 0;
#X connect 1 0 3 1;
#X connect 2 0 1 0;
#X connect 3 0 10 0;
#X connect 4 0 2 0;
#X connect 6 0 13 1;
#X connect 7 0 2 0;
#X connect 8 0 0 0;
#X connect 9 0 8 0;
#X connect 10 0 11 0;
#X connect 11 0 13 0;
#X connect 12 0 3 0;
#X connect 13 0 5 0;
#X restore 105 153 pd pbs;
#X obj 105 133 r pbs;
#X obj 105 182 +~;
#X obj 622 153 +~ 0.5;
#X obj 452 37 r \$0-b0;
#X msg 389 111 \$1 \$2;
#X obj 411 60 r gli;
#X obj 411 77 t b f;
#X obj 411 94 pack f f;
#X obj 369 31 r \$0-b1;
#X msg 452 60 15;
#X obj 319 304 sig~ 1;
#X obj 319 326 -~;
#X obj 370 309 cos~;
#X obj 319 347 *~ 0.5;
#X obj 590 313 sig~ 1;
#X obj 590 335 -~;
#X obj 641 318 cos~;
#X obj 590 356 *~ 0.5;
#X floatatom 267 111 5 0 0 0 - - -, f 5;
#X floatatom 353 94 5 0 0 0 - - -, f 5;
#X obj 1004 32 loadbang;
#X obj 1065 291 r xf;
#X obj 62 347 print array-set;
#X obj 483 94 print \$0-gs;
#X obj 273 36 f \$3;
#X obj 1010 384 -~;
#X floatatom 1065 321 5 0 0 0 - - -, f 5;
#X obj 1010 407 s~ \$0-l;
#X obj 1098 384 s~ \$0-r;
#X obj 758 278 abs~;
#X obj 228 249 abs~;
#X obj 1010 355 sig~ 1;
#X obj 1065 367 line~;
#X msg 1065 341 \$1 15;
#X obj 359 500 *~;
#X obj 574 484 *~;
#X obj 758 424 *~;
#X obj 183 576 *~;
#X obj 574 463 *~;
#X obj 359 465 *~;
#X obj 198 552 r~ \$0-r;
#X obj 395 483 r~ \$0-l;
#X obj 790 407 r~ \$0-r;
#X obj 606 467 r~ \$0-l;
#X obj 32 425 f \$0;
#X obj 68 425 f \$1;
#X obj 32 408 loadbang;
#X obj 32 442 print id-vn:--;
#X obj 630 48 r \$1-test;
#X floatatom 646 77 5 0 0 0 - - -, f 5;
#X obj 490 625 dac~ \$1;
#X msg 489 544 set \$1;
#X obj 489 524 + 1;
#X obj 489 502 f \$1;
#X obj 489 524;
#X obj 489 479 loadbang;
#N canvas 615 656 407 77 buf_off 0;
#X obj 7 12 inlet~;
#X obj 7 57 outlet~;
#X text 51 9 grain;
#X obj 364 7 inlet~;
#X obj 7 32 expr~ if($v1 >= $v2 - 64 && $v1 <= $v2 + 64 \, $v1 + 128
\, $v1);
#X text 64 54 don't read from where you're writing!;
#X connect 0 0 4 0;
#X connect 3 0 4 1;
#X connect 4 0 1 0;
#X restore 228 305 pd buf_off;
#N canvas 615 656 407 77 buf_off 0;
#X obj 7 12 inlet~;
#X obj 7 57 outlet~;
#X text 51 9 grain;
#X obj 364 7 inlet~;
#X obj 7 32 expr~ if($v1 >= $v2 - 64 && $v1 <= $v2 + 64 \, $v1 + 128
\, $v1);
#X text 64 54 don't read from where you're writing!;
#X connect 0 0 4 0;
#X connect 3 0 4 1;
#X connect 4 0 1 0;
#X restore 108 289 pd buf_off;
#X obj 53 214 abs~;
#N canvas 615 656 407 77 buf_off 0;
#X obj 7 12 inlet~;
#X obj 7 57 outlet~;
#X text 51 9 grain;
#X obj 364 7 inlet~;
#X obj 7 32 expr~ if($v1 >= $v2 - 64 && $v1 <= $v2 + 64 \, $v1 + 128
\, $v1);
#X text 64 54 don't read from where you're writing!;
#X connect 0 0 4 0;
#X connect 3 0 4 1;
#X connect 4 0 1 0;
#X restore 479 365 pd buf_off;
#X obj 424 290 abs~;
#N canvas 615 656 407 77 buf_off 0;
#X obj 7 12 inlet~;
#X obj 7 57 outlet~;
#X text 51 9 grain;
#X obj 364 7 inlet~;
#X obj 7 32 expr~ if($v1 >= $v2 - 64 && $v1 <= $v2 + 64 \, $v1 + 128
\, $v1);
#X text 64 54 don't read from where you're writing!;
#X connect 0 0 4 0;
#X connect 3 0 4 1;
#X connect 4 0 1 0;
#X restore 763 305 pd buf_off;
#X obj 183 471 tabread~ string1;
#X obj 574 434 tabread~ string1;
#X obj 359 434 tabread~ string1;
#X obj 758 355 tabread~ string1;
#X obj 733 106 loadbang;
#X obj 59 54 loadbang;
#X obj 369 77 + 50;
#X obj 165 265 r~ \$4-c;
#X obj 536 340 r~ \$4-c;
#X obj 819 279 r~ \$4-c;
#X obj 228 136 vphasor~;
#X obj 53 241 expr~ fmod($v1 \, 88200);
#X obj 156 182 *~ 44100;
#X obj 228 276 expr~ fmod($v1 \, 88200);
#X obj 424 317 expr~ fmod($v1 \, 88200);
#X obj 758 257 expr~ fmod($v1 \, 88200);
#X obj 863 211 *~ 44100;
#X obj 733 128 random 88200;
#X obj 59 76 random 88200;
#X obj 156 153 vsamphold~;
#X obj 863 195 vsamphold~;
#X obj 723 48 r \$1-sr;
#X obj 852 533 vline~;
#X floatatom 808 458 5 0 0 0 - - -, f 5;
#X obj 862 431 r \$1-illum;
#X obj 90 617 vline~;
#X obj 100 515 r \$1-illum;
#X obj 835 481 + 20;
#X obj 73 565 + 20;
#X obj 631 577 vcf~ 10;
#X obj 153 672 vcf~ 10;
#X msg 73 587 \$1 1000;
#X msg 835 503 \$1 1000;
#X connect 0 0 74 0;
#X connect 1 0 67 0;
#X connect 2 0 4 0;
#X connect 3 0 30 0;
#X connect 4 0 1 1;
#X connect 5 0 1 0;
#X connect 5 0 38 1;
#X connect 6 0 73 0;
#X connect 7 0 8 0;
#X connect 7 0 33 1;
#X connect 7 0 53 0;
#X connect 7 0 119 1;
#X connect 8 0 9 0;
#X connect 8 0 35 1;
#X connect 9 0 23 0;
#X connect 10 0 9 1;
#X connect 11 0 8 1;
#X connect 11 0 5 1;
#X connect 12 0 61 0;
#X connect 13 0 119 0;
#X connect 14 0 118 0;
#X connect 15 0 18 0;
#X connect 16 0 11 0;
#X connect 17 0 22 0;
#X connect 18 0 21 0;
#X connect 18 1 20 0;
#X connect 18 2 19 0;
#X connect 22 0 25 0;
#X connect 22 1 25 0;
#X connect 23 0 114 0;
#X connect 24 0 30 0;
#X connect 25 0 59 0;
#X connect 25 0 99 0;
#X connect 25 0 102 0;
#X connect 25 0 101 0;
#X connect 25 0 100 0;
#X connect 26 0 55 0;
#X connect 26 0 109 0;
#X connect 27 0 26 0;
#X connect 28 0 27 0;
#X connect 29 0 105 0;
#X connect 30 0 31 0;
#X connect 30 1 105 0;
#X connect 32 0 27 0;
#X connect 33 0 35 0;
#X connect 34 0 33 0;
#X connect 35 0 97 0;
#X connect 36 0 38 0;
#X connect 37 0 36 0;
#X connect 38 0 95 0;
#X connect 39 0 7 0;
#X connect 40 0 46 0;
#X connect 41 0 16 0;
#X connect 42 0 43 0;
#X connect 43 0 44 0;
#X connect 43 1 44 1;
#X connect 44 0 41 0;
#X connect 45 0 29 0;
#X connect 46 0 43 0;
#X connect 47 0 48 0;
#X connect 48 0 50 0;
#X connect 49 0 48 1;
#X connect 50 0 0 1;
#X connect 50 0 76 1;
#X connect 51 0 52 0;
#X connect 52 0 54 0;
#X connect 53 0 52 1;
#X connect 54 0 6 1;
#X connect 54 0 75 1;
#X connect 57 0 18 0;
#X connect 58 0 63 0;
#X connect 61 0 29 1;
#X connect 62 0 64 0;
#X connect 63 0 70 0;
#X connect 66 0 98 0;
#X connect 67 0 112 0;
#X connect 68 0 62 0;
#X connect 69 0 62 1;
#X connect 69 0 65 0;
#X connect 70 0 69 0;
#X connect 71 0 87 0;
#X connect 72 0 87 0;
#X connect 73 0 128 0;
#X connect 74 0 129 0;
#X connect 75 0 72 0;
#X connect 76 0 71 0;
#X connect 77 0 74 1;
#X connect 78 0 71 1;
#X connect 79 0 73 1;
#X connect 80 0 72 1;
#X connect 81 0 84 0;
#X connect 82 0 84 0;
#X connect 83 0 81 0;
#X connect 83 0 82 0;
#X connect 85 0 86 0;
#X connect 85 0 30 0;
#X connect 88 0 87 0;
#X connect 89 0 88 0;
#X connect 90 0 89 0;
#X connect 90 0 91 0;
#X connect 92 0 90 0;
#X connect 93 0 99 0;
#X connect 94 0 101 0;
#X connect 95 0 110 0;
#X connect 96 0 100 0;
#X connect 97 0 113 0;
#X connect 98 0 102 0;
#X connect 99 0 0 0;
#X connect 100 0 75 0;
#X connect 101 0 76 0;
#X connect 102 0 6 0;
#X connect 103 0 116 0;
#X connect 104 0 117 0;
#X connect 105 0 26 1;
#X connect 105 0 44 0;
#X connect 105 0 56 0;
#X connect 105 0 60 0;
#X connect 106 0 93 1;
#X connect 106 0 94 1;
#X connect 107 0 96 1;
#X connect 108 0 98 1;
#X connect 109 0 36 1;
#X connect 109 0 5 0;
#X connect 109 0 39 0;
#X connect 109 0 49 0;
#X connect 109 0 118 1;
#X connect 110 0 94 0;
#X connect 111 0 4 1;
#X connect 112 0 93 0;
#X connect 113 0 96 0;
#X connect 114 0 66 0;
#X connect 115 0 23 1;
#X connect 116 0 10 0;
#X connect 117 0 2 0;
#X connect 118 0 111 0;
#X connect 119 0 115 0;
#X connect 120 0 11 1;
#X connect 121 0 128 1;
#X connect 123 0 122 0;
#X connect 123 0 126 0;
#X connect 124 0 129 1;
#X connect 125 0 127 0;
#X connect 126 0 131 0;
#X connect 127 0 130 0;
#X connect 128 0 87 0;
#X connect 128 1 87 0;
#X connect 129 0 87 0;
#X connect 129 1 87 0;
#X connect 130 0 124 0;
#X connect 131 0 121 0;
