#N canvas 765 542 377 189 10;
#X obj 41 13 inlet~;
#X obj 144 13 inlet~;
#X obj 248 13 inlet~;
#X obj 41 131 outlet~;
#X obj 221 131 outlet~;
#X obj 144 131 outlet~;
#X obj 41 41 expr~ sqrt($v1*$v1+$v2*$v2+$v3*$v3);
#X obj 144 64 expr~ atan2($v2 \, $v1);
#X obj 221 83 /~;
#X obj 221 105 expr~ acos($v1);
#X connect 0 0 6 0;
#X connect 0 0 7 0;
#X connect 1 0 6 1;
#X connect 1 0 7 1;
#X connect 2 0 6 2;
#X connect 2 0 8 0;
#X connect 6 0 3 0;
#X connect 6 0 8 1;
#X connect 7 0 5 0;
#X connect 8 0 9 0;
#X connect 9 0 4 0;
