#N canvas 329 563 347 206 10;
#X obj 41 13 inlet~;
#X obj 111 13 inlet~;
#X obj 191 13 inlet~;
#X obj 41 35 *~;
#X obj 111 35 *~;
#X obj 191 35 *~;
#X obj 111 67 sqrt~;
#X obj 41 141 outlet~;
#X obj 191 119 pacos~;
#X obj 191 95 /~;
#X obj 191 141 outlet~;
#X obj 111 119 patan~;
#X obj 111 95 /~;
#X obj 111 141 outlet~;
#X connect 0 0 3 0;
#X connect 0 0 3 1;
#X connect 0 0 12 1;
#X connect 1 0 4 0;
#X connect 1 0 4 1;
#X connect 1 0 12 0;
#X connect 2 0 5 0;
#X connect 2 0 5 1;
#X connect 2 0 9 0;
#X connect 3 0 6 0;
#X connect 4 0 6 0;
#X connect 5 0 6 0;
#X connect 6 0 7 0;
#X connect 6 0 9 1;
#X connect 8 0 10 0;
#X connect 9 0 8 0;
#X connect 11 0 13 0;
#X connect 12 0 11 0;
