#N canvas 0 22 450 300 10;
#X obj 100 78 snapshot~;
#X obj 100 56 inlet~;
#X obj 100 100 nbx 5 14 -1e+37 1e+37 0 0 \$0-dummys \$0-dummyr empty
0 -8 0 10 -262144 -1 -1 0 256;
#X obj 182 32 loadbang;
#X obj 182 54 metro 100;
#X connect 0 0 2 0;
#X connect 1 0 0 0;
#X connect 3 0 4 0;
#X connect 4 0 0 0;
#X coords 0 -1 1 1 54 14 2 100 100;
