#N canvas 0 22 447 349 10;
#X obj 15 10 inlet;
#X text 135 29 scale to boids range (roughly);
#X obj 15 32 unpack f f f f f f;
#X obj 78 202 line;
#X obj 126 199 line;
#X obj 177 221 line;
#X msg 177 197 \$1 150;
#X msg 126 175 \$1 150;
#X msg 78 175 \$1 150;
#X obj 78 295 outlet;
#X obj 126 296 outlet;
#X obj 177 297 outlet;
#X obj 126 148 maxlib/scale -20 20 0 1;
#X obj 78 114 maxlib/scale -20 20 0 1;
#X obj 177 176 maxlib/scale -20 20 0 1;
#X connect 0 0 2 0;
#X connect 2 3 13 0;
#X connect 2 4 12 0;
#X connect 2 5 14 0;
#X connect 3 0 9 0;
#X connect 4 0 10 0;
#X connect 5 0 11 0;
#X connect 6 0 5 0;
#X connect 7 0 4 0;
#X connect 8 0 3 0;
#X connect 12 0 7 0;
#X connect 13 0 8 0;
#X connect 14 0 6 0;
