#N canvas 350 220 450 300 10;
#X obj 15 10 inlet;
#X obj 15 263 outlet;
#X text 135 29 scale to boids range (roughly);
#X obj 15 231 pack f f f;
#X obj 15 32 unpack f f f;
#X obj 20 166 line;
#X obj 278 193 line;
#X obj 314 251 line;
#X msg 20 139 \$1 500;
#X msg 278 167 \$1 500;
#X msg 314 227 \$1 500;
#X connect 0 0 4 0;
#X connect 3 0 1 0;
#X connect 4 0 8 0;
#X connect 4 1 9 0;
#X connect 4 2 10 0;
#X connect 5 0 3 0;
#X connect 6 0 3 1;
#X connect 7 0 3 2;
#X connect 8 0 5 0;
#X connect 9 0 6 0;
#X connect 10 0 7 0;
