#N canvas 350 220 450 300 10;
#X obj 15 10 inlet;
#X obj 15 263 outlet;
#X text 135 29 scale to boids range (roughly);
#X obj 15 231 pack f f f;
#X obj 15 32 unpack f f f;
#X obj 20 166 line;
#X obj 278 193 line;
#X obj 314 251 line;
#X floatatom 28 83 5 0 0 0 - - -, f 5;
#X msg 20 139 \$1 20;
#X msg 278 169 \$1 20;
#X msg 314 227 \$1 20;
#X obj 14 55 maxlib/scale -100 100 -10 10;
#X obj 63 90 maxlib/scale -100 100 -10 10;
#X obj 114 117 maxlib/scale -100 100 -10 10;
#X connect 0 0 4 0;
#X connect 3 0 1 0;
#X connect 4 0 8 0;
#X connect 4 0 12 0;
#X connect 4 1 13 0;
#X connect 4 2 14 0;
#X connect 5 0 3 0;
#X connect 6 0 3 1;
#X connect 7 0 3 2;
#X connect 9 0 5 0;
#X connect 10 0 6 0;
#X connect 11 0 7 0;
#X connect 12 0 9 0;
#X connect 13 0 10 0;
#X connect 14 0 11 0;
