#N canvas 408 94 635 496 10;
#X obj 224 235 /~ 3.14159;
#X obj 22 226 -~;
#X obj 71 330 grambipan~, f 26;
#X obj 224 256 *~ -1;
#X obj 224 279 +~ 1;
#X obj 71 209 abs~;
#X obj 147 274 /~ 6.28319;
#X obj 71 294 *~;
#X msg 112 278 az 0;
#X msg 112 302 el 0;
#X obj 22 277 lop~ 1;
#X obj 22 199 sig~ 4;
#X obj 147 300 lop~ 1;
#X obj 224 302 lop~ 1;
#X obj 71 150 sig~;
#X obj 147 149 sig~;
#X obj 224 149 sig~;
#X obj 71 79 unpack f f f;
#X obj 71 24 r string-1;
#X obj 74 102 hsl 128 15 -1 1 0 0 empty empty empty -2 -8 0 10 -262144
-1 -1 12700 1;
#X obj 150 118 hsl 128 15 -1 1 0 0 empty empty empty -2 -8 0 10 -262144
-1 -1 9525 1;
#X obj 227 133 hsl 128 15 -1 1 0 0 empty empty empty -2 -8 0 10 -262144
-1 -1 12700 1;
#X obj 71 56 speedlim 150;
#X obj 70 235 r~ one;
#X obj 71 265 *~ 0.2;
#X obj 71 173 pcartosphe~, f 26;
#X obj 71 369 grambidec~ cube, f 26;
#X obj 72 407 dac~ 17 18 19 20 21 22 23 24;
#X obj 428 103 unpackOSC;
#X obj 435 129 routeOSC /axes;
#X obj 435 158 unpack 0 0 0;
#X floatatom 439 184 5 0 0 0 - - -, f 5;
#X floatatom 477 190 5 0 0 0 - - -, f 5;
#X floatatom 477 190 5 0 0 0 - - -, f 5;
#X floatatom 530 193 5 0 0 0 - - -, f 5;
#X obj 420 60 udpreceive 9000;
#X obj 298 58 readsf~;
#X msg 334 28 1;
#X msg 258 19 open 1.wav;
#X obj 330 85 s~ one;
#X obj 353 178 s string-1;
#X connect 0 0 3 0;
#X connect 1 0 10 0;
#X connect 2 0 26 0;
#X connect 2 1 26 1;
#X connect 2 2 26 2;
#X connect 2 3 26 3;
#X connect 3 0 4 0;
#X connect 4 0 13 0;
#X connect 5 0 1 1;
#X connect 6 0 12 0;
#X connect 7 0 2 0;
#X connect 8 0 2 0;
#X connect 9 0 2 0;
#X connect 10 0 7 1;
#X connect 11 0 1 0;
#X connect 12 0 2 1;
#X connect 13 0 2 2;
#X connect 14 0 25 0;
#X connect 15 0 25 1;
#X connect 16 0 25 2;
#X connect 17 0 19 0;
#X connect 17 1 20 0;
#X connect 17 2 21 0;
#X connect 18 0 22 0;
#X connect 19 0 14 0;
#X connect 20 0 15 0;
#X connect 21 0 16 0;
#X connect 22 0 17 0;
#X connect 23 0 24 0;
#X connect 24 0 7 0;
#X connect 25 0 5 0;
#X connect 25 1 6 0;
#X connect 25 2 0 0;
#X connect 26 0 27 0;
#X connect 26 1 27 1;
#X connect 26 2 27 2;
#X connect 26 3 27 3;
#X connect 26 4 27 4;
#X connect 26 5 27 5;
#X connect 26 6 27 6;
#X connect 26 7 27 7;
#X connect 28 0 29 0;
#X connect 29 0 30 0;
#X connect 29 0 40 0;
#X connect 30 0 31 0;
#X connect 30 1 32 0;
#X connect 30 2 34 0;
#X connect 35 0 28 0;
#X connect 36 0 39 0;
#X connect 37 0 36 0;
#X connect 38 0 36 0;
