#N canvas 664 95 776 581 10;
#X obj 87 311 grambipan~ 1;
#X obj 87 48 adc~ 1;
#X obj 87 351 grambidec~ stereo;
#X obj 87 410 dac~ 1 2;
#N canvas 0 22 521 382 misc-cartopol3d 0;
#N canvas 0 23 770 443 c2p 0;
#X obj 314 136 * 180;
#X obj 258 116 cartopol;
#X obj 258 68 t b f;
#X floatatom 314 241 5 0 0 0 - - -, f 5;
#X obj 258 34 inlet;
#X obj 258 51 unpack 0 0;
#X obj 314 179 moses 1;
#X obj 314 159 / 3.14159;
#X obj 181 136 / 1.41421;
#X obj 617 210 outlet;
#X obj 314 204 + 360;
#X text 358 204 < deals with negative values;
#X obj 617 136 + 3.1415;
#X floatatom 617 158 5 0 0 0 - - -, f 5;
#X obj 384 324 outlet~;
#X obj 384 302 expr~ $v1 * (2 * 3.14159);
#X obj 384 257 /~ 360;
#X text 681 208 radians;
#X obj 258 94 f;
#X text 276 266 16384 16384;
#X obj 384 275 rampsmooth~ 16384 16384;
#X floatatom 181 182 5 0 0 0 - - -, f 5;
#X msg 98 308 0;
#X obj 36 328 spigot;
#X msg 135 308 1;
#X obj 98 283 sel 1;
#X obj 36 241 spigot;
#X obj 81 216 >= 0;
#X obj 36 196 line;
#X msg 36 176 \$1 50;
#X obj 98 261 < 0;
#X floatatom 258 139 5 0 0 0 - - -, f 5;
#X obj 617 180 / 6.28319;
#X msg 98 348 \$1 15;
#X obj 181 156 expr 1 - $f1;
#X obj 98 395 outlet~;
#X obj 98 368 line~;
#X connect 0 0 7 0;
#X connect 1 0 8 0;
#X connect 1 0 31 0;
#X connect 1 1 0 0;
#X connect 1 1 12 0;
#X connect 2 0 18 0;
#X connect 2 1 1 1;
#X connect 3 0 16 0;
#X connect 4 0 5 0;
#X connect 5 0 2 0;
#X connect 5 1 18 1;
#X connect 6 0 10 0;
#X connect 6 1 3 0;
#X connect 7 0 6 0;
#X connect 8 0 34 0;
#X connect 10 0 3 0;
#X connect 12 0 13 0;
#X connect 13 0 32 0;
#X connect 15 0 14 0;
#X connect 16 0 20 0;
#X connect 18 0 1 0;
#X connect 20 0 15 0;
#X connect 22 0 23 1;
#X connect 22 0 33 0;
#X connect 23 0 33 0;
#X connect 24 0 23 1;
#X connect 25 0 22 0;
#X connect 25 1 24 0;
#X connect 26 0 23 0;
#X connect 26 0 30 0;
#X connect 27 0 26 1;
#X connect 28 0 26 0;
#X connect 28 0 27 0;
#X connect 29 0 28 0;
#X connect 30 0 25 0;
#X connect 32 0 9 0;
#X connect 33 0 36 0;
#X connect 34 0 21 0;
#X connect 34 0 29 0;
#X connect 36 0 35 0;
#X restore 33 176 pd c2p;
#X obj 33 159 pack f f;
#X obj 161 121 + 0.25;
#X obj 280 184 line;
#X floatatom 14 62 5 0 0 0 - - -, f 5;
#X msg 280 161 \$1 500;
#X obj 33 108 * -1;
#X obj 69 45 unpack f f f;
#X floatatom 290 210 5 0 0 0 - - -, f 5;
#X obj 280 226 prepend el;
#X obj 161 144 clip 0.25 0.75;
#X floatatom 305 62 5 0 0 0 - - -, f 5;
#X obj 113 267 r amp-1;
#X msg 113 289 \$1 15;
#X obj 66 243 prepend az;
#X obj 66 220 line;
#X obj 33 130 / 2;
#X obj 78 132 / 2;
#X obj 161 72 / 2;
#X floatatom 151 214 5 0 0 0 - - -, f 5;
#X msg 67 197 \$1 500;
#X obj 161 97 abs;
#X connect 0 2 20 0;
#X connect 0 2 19 0;
#X connect 1 0 0 0;
#X connect 2 0 10 0;
#X connect 3 0 8 0;
#X connect 3 0 9 0;
#X connect 5 0 3 0;
#X connect 6 0 16 0;
#X connect 7 0 4 0;
#X connect 7 0 6 0;
#X connect 7 1 11 0;
#X connect 7 1 18 0;
#X connect 7 2 17 0;
#X connect 10 0 5 0;
#X connect 12 0 13 0;
#X connect 15 0 14 0;
#X connect 16 0 1 0;
#X connect 17 0 1 1;
#X connect 18 0 21 0;
#X connect 20 0 15 0;
#X connect 21 0 2 0;
#X restore 22 528 pd misc-cartopol3d;
#X obj 299 106 sig~;
#X obj 329 106 sig~;
#X obj 361 106 sig~;
#X obj 475 161 unsig~ 64;
#X floatatom 475 182 5 0 0 0 - - -, f 5;
#X floatatom 299 84 5 0 0 0 - - -, f 5;
#X floatatom 338 84 5 0 0 0 - - -, f 5;
#X floatatom 375 84 5 0 0 0 - - -, f 5;
#X obj 137 194 expr~ 1 - $v1;
#X obj 551 161 unsig~ 64;
#X floatatom 551 182 5 0 0 0 - - -, f 5;
#X obj 626 161 unsig~ 64;
#X floatatom 626 182 5 0 0 0 - - -, f 5;
#X obj 299 144 pcartosphe.expr~;
#X obj 392 233 /~ 1.5708;
#X obj 345 204 /~ 3.14159;
#X obj 299 177 /~ 3.14159;
#X obj 87 232 *~;
#X obj 405 265 unsig~ 64;
#X floatatom 405 286 5 0 0 0 - - -, f 5;
#X obj 345 314 unsig~ 64;
#X floatatom 345 335 5 0 0 0 - - -, f 5;
#X obj 250 306 unsig~ 64;
#X floatatom 250 327 5 0 0 0 - - -, f 5;
#X obj 299 25 r string-1;
#X obj 299 47 unpack f f f;
#X msg 259 67 0;
#X obj 136 215 clip~ 0 1;
#X connect 0 0 2 0;
#X connect 0 1 2 1;
#X connect 0 2 2 2;
#X connect 0 3 2 3;
#X connect 1 0 22 0;
#X connect 2 0 3 0;
#X connect 2 1 3 1;
#X connect 5 0 18 0;
#X connect 6 0 18 1;
#X connect 7 0 18 2;
#X connect 8 0 9 0;
#X connect 10 0 5 0;
#X connect 11 0 6 0;
#X connect 12 0 7 0;
#X connect 13 0 32 0;
#X connect 14 0 15 0;
#X connect 16 0 17 0;
#X connect 18 0 8 0;
#X connect 18 0 21 0;
#X connect 18 1 14 0;
#X connect 18 1 20 0;
#X connect 18 2 16 0;
#X connect 18 2 19 0;
#X connect 19 0 0 2;
#X connect 19 0 23 0;
#X connect 20 0 0 1;
#X connect 20 0 25 0;
#X connect 21 0 13 0;
#X connect 21 0 27 0;
#X connect 22 0 0 0;
#X connect 23 0 24 0;
#X connect 25 0 26 0;
#X connect 27 0 28 0;
#X connect 29 0 30 0;
#X connect 31 0 10 0;
#X connect 31 0 11 0;
#X connect 31 0 12 0;
#X connect 32 0 22 1;
