#N canvas 652 137 450 300 10;
#X obj 227 49 inlet~;
#X obj 116 118 vu 15 120 \$0-one empty -1 -8 0 10 -66577 -1 1 0;
#X obj 227 124 s \$0-one;
#X obj 227 101 - 100;
#X obj 227 79 env~ 64;
#X connect 0 0 4 0;
#X connect 3 0 2 0;
#X connect 4 0 3 0;
#X coords 0 -1 1 1 85 150 1 100 100;
